<svg xmlns="http://www.w3.org/2000/svg" width="1600" height="920" viewBox="0 0 1600 920">
  <defs>
    <linearGradient id="bg" x1="0" y1="0" x2="1" y2="1">
      <stop offset="0" stop-color="#0d1c2f"/>
      <stop offset="1" stop-color="#080c15"/>
    </linearGradient>
    <linearGradient id="zoneA" x1="0" y1="0" x2="1" y2="1">
      <stop offset="0" stop-color="#18436b"/>
      <stop offset="1" stop-color="#102743"/>
    </linearGradient>
    <linearGradient id="zoneB" x1="0" y1="0" x2="1" y2="1">
      <stop offset="0" stop-color="#1a5d43"/>
      <stop offset="1" stop-color="#103a29"/>
    </linearGradient>
    <linearGradient id="zoneC" x1="0" y1="0" x2="1" y2="1">
      <stop offset="0" stop-color="#62401d"/>
      <stop offset="1" stop-color="#3a2611"/>
    </linearGradient>
  </defs>

  <rect width="1600" height="920" fill="url(#bg)"/>
  <rect x="34" y="34" width="1532" height="852" rx="24" fill="#0b1321" stroke="#5aa4ff" stroke-opacity="0.45"/>

  <rect x="78" y="88" width="450" height="250" rx="18" fill="url(#zoneA)" stroke="#6fb9ff" stroke-opacity="0.5"/>
  <text x="108" y="128" fill="#d2ecff" font-family="Rajdhani, Segoe UI, Arial" font-size="30">GREENHOUSE COMPLEX</text>

  <rect x="562" y="88" width="470" height="250" rx="18" fill="url(#zoneB)" stroke="#72f0b6" stroke-opacity="0.45"/>
  <text x="592" y="128" fill="#dbffef" font-family="Rajdhani, Segoe UI, Arial" font-size="30">IRRIGATION + WATER PLANT</text>

  <rect x="1066" y="88" width="454" height="250" rx="18" fill="url(#zoneC)" stroke="#ffc57b" stroke-opacity="0.48"/>
  <text x="1096" y="128" fill="#ffe7c7" font-family="Rajdhani, Segoe UI, Arial" font-size="30">EQUIPMENT + FLEET</text>

  <rect x="78" y="372" width="700" height="468" rx="18" fill="#131f34" stroke="#709ad1" stroke-opacity="0.38"/>
  <text x="108" y="412" fill="#dce9ff" font-family="Rajdhani, Segoe UI, Arial" font-size="30">SOIL + YIELD TERRITORY</text>

  <rect x="812" y="372" width="708" height="468" rx="18" fill="#1a1f2b" stroke="#b28cff" stroke-opacity="0.4"/>
  <text x="842" y="412" fill="#e9ddff" font-family="Rajdhani, Segoe UI, Arial" font-size="30">SECURITY + ENERGY OPERATIONS</text>

  <rect x="124" y="462" width="180" height="126" rx="12" fill="#20456d" opacity="0.82"/>
  <rect x="346" y="492" width="220" height="118" rx="12" fill="#2a5b84" opacity="0.82"/>
  <rect x="600" y="456" width="132" height="136" rx="12" fill="#1d3e61" opacity="0.84"/>

  <rect x="878" y="476" width="192" height="130" rx="12" fill="#2d3754" opacity="0.84"/>
  <rect x="1110" y="456" width="186" height="124" rx="12" fill="#3f335b" opacity="0.84"/>
  <rect x="1330" y="496" width="150" height="140" rx="12" fill="#4b2f49" opacity="0.84"/>

  <text x="90" y="868" fill="#8fb2d8" font-family="Rajdhani, Segoe UI, Arial" font-size="22">FFT NEXUS FLOORPLAN</text>
  <text x="1242" y="868" fill="#7cc9a6" font-family="Rajdhani, Segoe UI, Arial" font-size="20">LIVE ENTITY OVERLAYS ENABLED</text>
</svg>
